<?xml version="1.0" standalone="no"?>
<!DOCTYPE svg PUBLIC "-//W3C//DTD SVG 20010904//EN"
 "http://www.w3.org/TR/2001/REC-SVG-20010904/DTD/svg10.dtd">
<svg version="1.0" xmlns="http://www.w3.org/2000/svg"
 width="92.000000pt" height="92.000000pt" viewBox="0 0 92.000000 92.000000"
 preserveAspectRatio="xMidYMid meet">
<metadata>
Created by potrace 1.14, written by Peter Selinger 2001-2017
</metadata>
<g transform="translate(0.000000,92.000000) scale(0.100000,-0.100000)"
fill="#000000" stroke="none">
<path d="M640 762 c-19 -2 -39 -10 -43 -17 -6 -11 -14 -12 -33 -5 -42 16 -136
18 -183 4 -237 -71 -291 -382 -91 -527 69 -49 198 -67 273 -36 23 10 30 10 37
-1 8 -13 149 -23 151 -11 1 6 9 278 9 296 -2 74 -8 282 -9 286 -1 9 -67 15
-111 11z m-20 -62 c0 -13 -5 -18 -14 -14 -8 3 -12 12 -9 20 8 21 23 17 23 -6z
m-93 -125 c83 -42 82 -195 -1 -230 -79 -33 -151 -11 -184 55 -58 117 66 234
185 175z m85 -367 c-7 -7 -12 -8 -12 -2 0 14 12 26 19 19 2 -3 -1 -11 -7 -17z"/>
</g>
</svg>
